<svg width="230" height="230" viewBox="0 0 230 230" fill="none" xmlns="http://www.w3.org/2000/svg">
<path d="M187.076 93.8603C191.129 94.8437 195.09 96.1745 198.915 97.8379C202.862 99.5142 206.552 101.742 209.874 104.455C210.717 105.172 211.521 105.932 212.284 106.734L212.575 107.033L212.875 107.393L213.466 108.12C213.848 108.614 214.162 109.162 214.499 109.688C215.693 111.877 216.292 114.341 216.234 116.833C216.177 119.326 215.465 121.76 214.171 123.891L213.938 124.288L213.668 124.664L213.124 125.409C212.731 125.881 212.314 126.337 211.882 126.772L211.191 127.381C210.966 127.59 210.725 127.781 210.471 127.953C210.003 128.297 209.517 128.617 209.016 128.911C201.443 133.45 193.179 136.539 184.916 138.956C179.397 140.584 173.822 141.891 168.259 143.094C165.477 143.697 162.693 144.253 159.911 144.835C157.125 145.401 154.33 145.924 151.54 146.471C140.361 148.574 129.1 150.325 117.765 151.567C106.416 152.841 95.0058 153.497 83.5855 153.533C72.1317 153.568 60.6901 152.784 49.3484 151.186C48.4716 151.087 47.6047 150.915 46.7331 150.776L44.1227 150.333C42.3822 150.029 40.6451 149.757 38.9026 149.388C35.3347 148.71 31.831 147.729 28.4294 146.457C26.6846 145.78 24.9948 144.969 23.3751 144.032C22.9678 143.793 22.5605 143.554 22.1662 143.289C21.7514 143.035 21.3523 142.757 20.9708 142.455L19.7757 141.509C19.4038 141.163 19.0511 140.793 18.6918 140.432C18.3309 140.072 17.9997 139.684 17.7015 139.27C17.3757 138.878 17.079 138.463 16.8137 138.028C16.5519 137.591 16.2853 137.157 16.036 136.714L15.4091 135.324C14.6592 133.439 14.2349 131.442 14.1543 129.415C14.1186 127.394 14.4194 125.381 15.0443 123.459C15.6879 121.539 16.6697 119.749 17.9433 118.174L18.9372 117.031C19.3006 116.683 19.6778 116.349 20.0507 116.011C20.2347 115.851 20.4325 115.656 20.6059 115.527L21.1324 115.119L22.1856 114.305C22.8894 113.765 23.5854 113.214 24.2963 112.683L26.4558 111.129C29.3325 109.052 32.3188 107.138 35.3341 105.278C36.8619 104.383 38.3851 103.478 39.9299 102.614L42.2635 101.348L43.4303 100.716L44.6139 100.116C50.9116 96.9032 57.4 94.0785 64.0428 91.658C70.6754 89.2529 77.4326 87.2062 84.2851 85.5268C97.9739 82.1645 111.925 80.1165 125.898 78.8858C134.332 78.1307 142.87 77.8342 151.208 77.7033C159.194 77.5901 164.364 78.0047 167.567 78.5802C169.9 78.9993 169.893 79.4628 167.896 79.8723C165.899 80.2818 161.911 80.627 156.281 80.8975C149.157 81.2355 141.379 81.5691 134.034 82.0302C117.133 83.0944 100.297 85.2605 83.9822 89.4989C67.6982 93.7375 51.9122 100.041 37.6988 108.896C33.7919 111.356 29.9386 114.061 26.2431 116.908C25.3283 117.631 24.4155 118.352 23.5048 119.072C23.0881 119.425 22.7614 119.756 22.3803 120.091C22.0284 120.44 21.7331 120.839 21.4005 121.202C20.1923 122.742 19.3621 124.545 18.9768 126.464C18.6896 127.984 18.6752 129.543 18.9342 131.068L19.0446 131.636C19.072 131.827 19.1166 132.016 19.178 132.199L19.525 133.303L19.9968 134.358L20.1141 134.622L20.2644 134.869L20.562 135.363C20.6621 135.528 20.7548 135.697 20.8592 135.858L21.2159 136.312C21.4378 136.627 21.6843 136.924 21.9532 137.2L22.7677 138.022L23.6845 138.737C24.0047 138.991 24.3415 139.224 24.6928 139.434C25.0406 139.669 25.4107 139.874 25.7738 140.088C26.5052 140.51 27.266 140.89 28.0367 141.255C31.2379 142.655 34.5818 143.703 38.0095 144.38C41.4907 145.146 45.1067 145.613 48.6575 146.229C50.4432 146.501 52.2416 146.693 54.033 146.929L56.7225 147.268C57.6206 147.368 58.5226 147.435 59.4224 147.521L64.824 148.006L70.2402 148.316C71.1432 148.361 72.0443 148.436 72.9485 148.457L75.6605 148.53C77.4687 148.568 79.2752 148.656 81.0839 148.657C84.7016 148.649 88.3176 148.69 91.9331 148.558C113.443 148.034 134.962 144.888 156.194 140.801C165.661 138.932 175.146 137.086 184.297 134.405C188.859 133.084 193.332 131.474 197.689 129.585C198.758 129.086 199.846 128.622 200.891 128.079C201.417 127.814 201.948 127.558 202.47 127.286L204.019 126.442C204.541 126.168 205.046 125.87 205.549 125.566C206.046 125.267 206.572 124.965 207.048 124.668C207.465 124.396 207.861 124.094 208.234 123.765C208.426 123.608 208.608 123.439 208.781 123.26L209.279 122.707C210.557 121.156 211.318 119.245 211.456 117.24C211.531 116.246 211.441 115.246 211.189 114.282C211.16 114.161 211.138 114.038 211.103 113.92L210.976 113.571C210.885 113.341 210.826 113.097 210.715 112.876L210.387 112.209C210.273 111.99 210.145 111.777 210.003 111.574C209.734 111.155 209.435 110.756 209.106 110.382C208.737 109.99 208.338 109.583 207.942 109.194C207.117 108.421 206.248 107.696 205.339 107.023C203.476 105.661 201.498 104.462 199.428 103.441C195.191 101.384 190.752 99.773 186.182 98.6332C181.52 97.438 176.831 96.3473 172.117 95.3609C164.594 93.7998 157.258 92.3989 150.192 91.1979C146.659 90.589 143.194 90.0341 139.81 89.5119C136.428 88.9661 133.122 88.4996 129.91 88.0482C126.954 87.6522 125.58 87.2616 125.816 86.9637C126.05 86.679 127.898 86.4491 131.375 86.5183C141.535 86.7159 151.673 87.5252 161.736 88.9419C165.931 89.5043 170.151 90.2799 174.371 91.126C178.59 91.979 182.807 92.9231 186.981 93.9287C187.011 93.9048 187.04 93.8833 187.076 93.8603Z" fill="#B8E94A"/>
</svg>
